<mxfile host="app.diagrams.net" modified="2023-12-04T18:28:22.249Z" agent="Mozilla/5.0 (Windows NT 10.0; Win64; x64) AppleWebKit/537.36 (KHTML, like Gecko) Chrome/119.0.0.0 Safari/537.36" etag="qly1s6VHeitKrgO5l6DA" version="22.1.5" type="device">
  <diagram name="Seite-1" id="tL77MMrIVcuDciSENJyp">
    <mxGraphModel dx="2231" dy="2157" grid="1" gridSize="10" guides="1" tooltips="1" connect="1" arrows="1" fold="1" page="1" pageScale="1" pageWidth="827" pageHeight="1169" math="0" shadow="0">
      <root>
        <mxCell id="0" />
        <mxCell id="1" parent="0" />
        <mxCell id="eS9JZNQ0svhB8HKSOFD9-6" style="edgeStyle=orthogonalEdgeStyle;rounded=1;orthogonalLoop=1;jettySize=auto;html=1;exitX=0.5;exitY=1;exitDx=0;exitDy=0;strokeWidth=2;fontSize=12;entryX=0.5;entryY=0;entryDx=0;entryDy=0;" edge="1" parent="1" source="eS9JZNQ0svhB8HKSOFD9-147" target="eS9JZNQ0svhB8HKSOFD9-18">
          <mxGeometry relative="1" as="geometry">
            <mxPoint x="835.04" y="440" as="targetPoint" />
            <mxPoint x="835.04" y="240" as="sourcePoint" />
          </mxGeometry>
        </mxCell>
        <mxCell id="eS9JZNQ0svhB8HKSOFD9-7" value="&lt;font style=&quot;font-size: 14px;&quot;&gt;specifies&lt;/font&gt;" style="edgeLabel;html=1;align=center;verticalAlign=middle;resizable=0;points=[];" vertex="1" connectable="0" parent="eS9JZNQ0svhB8HKSOFD9-6">
          <mxGeometry x="-0.3058" y="-1" relative="1" as="geometry">
            <mxPoint x="40" y="-6" as="offset" />
          </mxGeometry>
        </mxCell>
        <mxCell id="eS9JZNQ0svhB8HKSOFD9-18" value="Principles" style="ellipse;whiteSpace=wrap;html=1;strokeWidth=2;fillColor=#dae8fc;strokeColor=#6c8ebf;" vertex="1" parent="1">
          <mxGeometry x="1063.7" y="290" width="120" height="60" as="geometry" />
        </mxCell>
        <mxCell id="eS9JZNQ0svhB8HKSOFD9-19" style="edgeStyle=orthogonalEdgeStyle;rounded=1;orthogonalLoop=1;jettySize=auto;html=1;exitX=0;exitY=0.5;exitDx=0;exitDy=0;entryX=1;entryY=0.5;entryDx=0;entryDy=0;strokeWidth=2;fontSize=12;" edge="1" parent="1">
          <mxGeometry relative="1" as="geometry">
            <mxPoint x="707" y="320" as="sourcePoint" />
            <mxPoint x="603.6999999999998" y="600" as="targetPoint" />
            <Array as="points">
              <mxPoint x="660" y="320" />
              <mxPoint x="660" y="600" />
            </Array>
          </mxGeometry>
        </mxCell>
        <mxCell id="eS9JZNQ0svhB8HKSOFD9-23" style="edgeStyle=orthogonalEdgeStyle;rounded=1;orthogonalLoop=1;jettySize=auto;html=1;exitX=0.64;exitY=0.97;exitDx=0;exitDy=0;entryX=0;entryY=0.5;entryDx=0;entryDy=0;strokeWidth=2;fontSize=12;exitPerimeter=0;" edge="1" parent="1" source="eS9JZNQ0svhB8HKSOFD9-27" target="eS9JZNQ0svhB8HKSOFD9-68">
          <mxGeometry relative="1" as="geometry">
            <Array as="points">
              <mxPoint x="784" y="690" />
            </Array>
          </mxGeometry>
        </mxCell>
        <mxCell id="eS9JZNQ0svhB8HKSOFD9-24" value="&lt;font style=&quot;font-size: 14px;&quot;&gt;needs&lt;/font&gt;" style="edgeLabel;html=1;align=center;verticalAlign=middle;resizable=0;points=[];" vertex="1" connectable="0" parent="eS9JZNQ0svhB8HKSOFD9-23">
          <mxGeometry x="0.049" y="-6" relative="1" as="geometry">
            <mxPoint x="80" y="-6" as="offset" />
          </mxGeometry>
        </mxCell>
        <mxCell id="eS9JZNQ0svhB8HKSOFD9-195" style="edgeStyle=orthogonalEdgeStyle;rounded=0;orthogonalLoop=1;jettySize=auto;html=1;exitX=1;exitY=0.5;exitDx=0;exitDy=0;strokeWidth=2;" edge="1" parent="1" source="eS9JZNQ0svhB8HKSOFD9-27" target="eS9JZNQ0svhB8HKSOFD9-18">
          <mxGeometry relative="1" as="geometry" />
        </mxCell>
        <mxCell id="eS9JZNQ0svhB8HKSOFD9-196" value="&lt;font style=&quot;font-size: 14px;&quot;&gt;has&lt;/font&gt;" style="edgeLabel;html=1;align=center;verticalAlign=middle;resizable=0;points=[];" vertex="1" connectable="0" parent="eS9JZNQ0svhB8HKSOFD9-195">
          <mxGeometry x="-0.072" y="-1" relative="1" as="geometry">
            <mxPoint y="-2" as="offset" />
          </mxGeometry>
        </mxCell>
        <mxCell id="eS9JZNQ0svhB8HKSOFD9-27" value="Capabilities" style="ellipse;whiteSpace=wrap;html=1;strokeWidth=2;fillColor=#dae8fc;strokeColor=#6c8ebf;" vertex="1" parent="1">
          <mxGeometry x="706.9999999999999" y="290" width="120" height="60" as="geometry" />
        </mxCell>
        <mxCell id="eS9JZNQ0svhB8HKSOFD9-28" value="Framework" style="ellipse;whiteSpace=wrap;html=1;strokeWidth=2;fillColor=#dae8fc;strokeColor=#6c8ebf;" vertex="1" parent="1">
          <mxGeometry x="483.70000000000005" y="570" width="120" height="60" as="geometry" />
        </mxCell>
        <mxCell id="eS9JZNQ0svhB8HKSOFD9-219" style="edgeStyle=orthogonalEdgeStyle;rounded=0;orthogonalLoop=1;jettySize=auto;html=1;exitX=1;exitY=0.5;exitDx=0;exitDy=0;entryX=0.5;entryY=1;entryDx=0;entryDy=0;strokeWidth=2;" edge="1" parent="1" source="eS9JZNQ0svhB8HKSOFD9-29" target="eS9JZNQ0svhB8HKSOFD9-68">
          <mxGeometry relative="1" as="geometry" />
        </mxCell>
        <mxCell id="eS9JZNQ0svhB8HKSOFD9-220" value="&lt;font style=&quot;font-size: 15px;&quot;&gt;defines&lt;/font&gt;" style="edgeLabel;html=1;align=center;verticalAlign=middle;resizable=0;points=[];" vertex="1" connectable="0" parent="eS9JZNQ0svhB8HKSOFD9-219">
          <mxGeometry x="-0.0532" relative="1" as="geometry">
            <mxPoint as="offset" />
          </mxGeometry>
        </mxCell>
        <mxCell id="eS9JZNQ0svhB8HKSOFD9-29" value="ISO" style="ellipse;whiteSpace=wrap;html=1;strokeWidth=2;fillColor=#dae8fc;strokeColor=#6c8ebf;" vertex="1" parent="1">
          <mxGeometry x="680" y="790" width="120" height="60" as="geometry" />
        </mxCell>
        <mxCell id="eS9JZNQ0svhB8HKSOFD9-34" value="Maturity" style="ellipse;whiteSpace=wrap;html=1;strokeWidth=2;fillColor=#dae8fc;strokeColor=#6c8ebf;" vertex="1" parent="1">
          <mxGeometry x="1070.0000000000002" y="410" width="120" height="60" as="geometry" />
        </mxCell>
        <mxCell id="eS9JZNQ0svhB8HKSOFD9-35" style="edgeStyle=orthogonalEdgeStyle;rounded=1;orthogonalLoop=1;jettySize=auto;html=1;exitX=0;exitY=1;exitDx=0;exitDy=0;jumpStyle=arc;strokeWidth=2;fontSize=12;entryX=0.5;entryY=0;entryDx=0;entryDy=0;entryPerimeter=0;" edge="1" parent="1" source="eS9JZNQ0svhB8HKSOFD9-37" target="eS9JZNQ0svhB8HKSOFD9-68">
          <mxGeometry relative="1" as="geometry">
            <mxPoint x="1350" y="550" as="targetPoint" />
            <Array as="points">
              <mxPoint x="1320" y="-39" />
              <mxPoint x="1320" y="30" />
              <mxPoint x="1270" y="30" />
            </Array>
          </mxGeometry>
        </mxCell>
        <mxCell id="eS9JZNQ0svhB8HKSOFD9-36" value="&lt;font style=&quot;font-size: 14px;&quot;&gt;responsibleFor&lt;/font&gt;" style="edgeLabel;html=1;align=center;verticalAlign=middle;resizable=0;points=[];" vertex="1" connectable="0" parent="eS9JZNQ0svhB8HKSOFD9-35">
          <mxGeometry x="0.32" relative="1" as="geometry">
            <mxPoint as="offset" />
          </mxGeometry>
        </mxCell>
        <mxCell id="eS9JZNQ0svhB8HKSOFD9-283" style="edgeStyle=orthogonalEdgeStyle;rounded=1;orthogonalLoop=1;jettySize=auto;html=1;exitX=1;exitY=1;exitDx=0;exitDy=0;entryX=0.5;entryY=0;entryDx=0;entryDy=0;strokeWidth=2;" edge="1" parent="1" source="eS9JZNQ0svhB8HKSOFD9-37" target="eS9JZNQ0svhB8HKSOFD9-240">
          <mxGeometry relative="1" as="geometry">
            <Array as="points">
              <mxPoint x="1490" y="-39" />
            </Array>
          </mxGeometry>
        </mxCell>
        <mxCell id="eS9JZNQ0svhB8HKSOFD9-284" value="&lt;font style=&quot;font-size: 14px;&quot;&gt;has&lt;/font&gt;" style="edgeLabel;html=1;align=center;verticalAlign=middle;resizable=0;points=[];" vertex="1" connectable="0" parent="eS9JZNQ0svhB8HKSOFD9-283">
          <mxGeometry x="0.1162" y="1" relative="1" as="geometry">
            <mxPoint as="offset" />
          </mxGeometry>
        </mxCell>
        <mxCell id="eS9JZNQ0svhB8HKSOFD9-37" value="OrganizationUnit" style="ellipse;whiteSpace=wrap;html=1;strokeWidth=2;fillColor=#dae8fc;strokeColor=#6c8ebf;" vertex="1" parent="1">
          <mxGeometry x="1320" y="-90" width="120" height="60" as="geometry" />
        </mxCell>
        <mxCell id="eS9JZNQ0svhB8HKSOFD9-46" style="edgeStyle=orthogonalEdgeStyle;rounded=1;orthogonalLoop=1;jettySize=auto;html=1;exitX=0;exitY=0.5;exitDx=0;exitDy=0;entryX=1;entryY=0.5;entryDx=0;entryDy=0;dashed=1;dashPattern=8 8;strokeWidth=2;" edge="1" parent="1" source="eS9JZNQ0svhB8HKSOFD9-47" target="eS9JZNQ0svhB8HKSOFD9-37">
          <mxGeometry relative="1" as="geometry" />
        </mxCell>
        <mxCell id="eS9JZNQ0svhB8HKSOFD9-47" value="Business Unit" style="ellipse;whiteSpace=wrap;html=1;strokeWidth=2;fillColor=#dae8fc;strokeColor=#6c8ebf;" vertex="1" parent="1">
          <mxGeometry x="1759.92" y="-90" width="120" height="60" as="geometry" />
        </mxCell>
        <mxCell id="eS9JZNQ0svhB8HKSOFD9-68" value="Tool" style="ellipse;whiteSpace=wrap;html=1;strokeWidth=2;fillColor=#dae8fc;strokeColor=#6c8ebf;" vertex="1" parent="1">
          <mxGeometry x="1210.0000000000002" y="660" width="120" height="60" as="geometry" />
        </mxCell>
        <mxCell id="eS9JZNQ0svhB8HKSOFD9-71" value="Data" style="ellipse;whiteSpace=wrap;html=1;strokeWidth=2;fillColor=#dae8fc;strokeColor=#6c8ebf;" vertex="1" parent="1">
          <mxGeometry x="1350.0000000000002" y="960" width="120" height="60" as="geometry" />
        </mxCell>
        <mxCell id="eS9JZNQ0svhB8HKSOFD9-72" style="edgeStyle=orthogonalEdgeStyle;rounded=0;orthogonalLoop=1;jettySize=auto;html=1;exitX=1;exitY=0.5;exitDx=0;exitDy=0;entryX=0;entryY=0.5;entryDx=0;entryDy=0;strokeWidth=2;" edge="1" parent="1" source="eS9JZNQ0svhB8HKSOFD9-76" target="eS9JZNQ0svhB8HKSOFD9-71">
          <mxGeometry relative="1" as="geometry" />
        </mxCell>
        <mxCell id="eS9JZNQ0svhB8HKSOFD9-73" value="&lt;font style=&quot;font-size: 14px;&quot;&gt;governs&lt;/font&gt;" style="edgeLabel;html=1;align=center;verticalAlign=middle;resizable=0;points=[];" vertex="1" connectable="0" parent="eS9JZNQ0svhB8HKSOFD9-72">
          <mxGeometry x="0.0232" y="-2" relative="1" as="geometry">
            <mxPoint as="offset" />
          </mxGeometry>
        </mxCell>
        <mxCell id="eS9JZNQ0svhB8HKSOFD9-76" value="Record" style="ellipse;whiteSpace=wrap;html=1;strokeWidth=2;fillColor=#dae8fc;strokeColor=#6c8ebf;" vertex="1" parent="1">
          <mxGeometry x="1063.7000000000003" y="960" width="120" height="60" as="geometry" />
        </mxCell>
        <mxCell id="eS9JZNQ0svhB8HKSOFD9-77" style="edgeStyle=orthogonalEdgeStyle;rounded=0;orthogonalLoop=1;jettySize=auto;html=1;exitX=1;exitY=0.5;exitDx=0;exitDy=0;entryX=0;entryY=0.5;entryDx=0;entryDy=0;strokeWidth=2;fontSize=12;" edge="1" parent="1" source="eS9JZNQ0svhB8HKSOFD9-79" target="eS9JZNQ0svhB8HKSOFD9-76">
          <mxGeometry relative="1" as="geometry" />
        </mxCell>
        <mxCell id="eS9JZNQ0svhB8HKSOFD9-78" value="&lt;font style=&quot;font-size: 14px;&quot;&gt;creates&lt;/font&gt;" style="edgeLabel;html=1;align=center;verticalAlign=middle;resizable=0;points=[];" vertex="1" connectable="0" parent="eS9JZNQ0svhB8HKSOFD9-77">
          <mxGeometry x="-0.0143" relative="1" as="geometry">
            <mxPoint as="offset" />
          </mxGeometry>
        </mxCell>
        <mxCell id="eS9JZNQ0svhB8HKSOFD9-229" style="edgeStyle=orthogonalEdgeStyle;rounded=1;orthogonalLoop=1;jettySize=auto;html=1;exitX=1;exitY=0;exitDx=0;exitDy=0;entryX=0.5;entryY=1;entryDx=0;entryDy=0;strokeWidth=2;" edge="1" parent="1" source="eS9JZNQ0svhB8HKSOFD9-79" target="eS9JZNQ0svhB8HKSOFD9-37">
          <mxGeometry relative="1" as="geometry">
            <Array as="points">
              <mxPoint x="593" y="900" />
              <mxPoint x="1380" y="900" />
            </Array>
          </mxGeometry>
        </mxCell>
        <mxCell id="eS9JZNQ0svhB8HKSOFD9-230" value="&lt;font style=&quot;font-size: 14px;&quot;&gt;linkedTo&lt;/font&gt;" style="edgeLabel;html=1;align=center;verticalAlign=middle;resizable=0;points=[];" vertex="1" connectable="0" parent="eS9JZNQ0svhB8HKSOFD9-229">
          <mxGeometry x="-0.4948" y="-2" relative="1" as="geometry">
            <mxPoint as="offset" />
          </mxGeometry>
        </mxCell>
        <mxCell id="eS9JZNQ0svhB8HKSOFD9-79" value="Process" style="ellipse;whiteSpace=wrap;html=1;strokeWidth=2;fillColor=#dae8fc;strokeColor=#6c8ebf;" vertex="1" parent="1">
          <mxGeometry x="489.99999999999994" y="960" width="120" height="60" as="geometry" />
        </mxCell>
        <mxCell id="eS9JZNQ0svhB8HKSOFD9-95" value="&lt;font style=&quot;font-size: 20px;&quot;&gt;1&lt;/font&gt;" style="edgeLabel;html=1;align=center;verticalAlign=middle;resizable=0;points=[];" vertex="1" connectable="0" parent="1">
          <mxGeometry x="659.9972413793189" y="1100" as="geometry">
            <mxPoint x="-29" y="-112" as="offset" />
          </mxGeometry>
        </mxCell>
        <mxCell id="eS9JZNQ0svhB8HKSOFD9-96" value="&lt;font style=&quot;font-size: 20px;&quot;&gt;1...&lt;/font&gt;" style="edgeLabel;html=1;align=center;verticalAlign=middle;resizable=0;points=[];" vertex="1" connectable="0" parent="1">
          <mxGeometry x="1023.6972413793188" y="990" as="geometry">
            <mxPoint x="1" y="-3" as="offset" />
          </mxGeometry>
        </mxCell>
        <mxCell id="eS9JZNQ0svhB8HKSOFD9-97" value="Governance" style="ellipse;whiteSpace=wrap;html=1;strokeWidth=2;fillColor=#dae8fc;strokeColor=#6c8ebf;" vertex="1" parent="1">
          <mxGeometry x="470" y="-400" width="120" height="60" as="geometry" />
        </mxCell>
        <mxCell id="eS9JZNQ0svhB8HKSOFD9-98" value="Governance Criterion" style="ellipse;whiteSpace=wrap;html=1;strokeWidth=2;fillColor=#dae8fc;strokeColor=#6c8ebf;" vertex="1" parent="1">
          <mxGeometry x="110" y="-250" width="120" height="60" as="geometry" />
        </mxCell>
        <mxCell id="eS9JZNQ0svhB8HKSOFD9-111" style="edgeStyle=orthogonalEdgeStyle;rounded=1;orthogonalLoop=1;jettySize=auto;html=1;exitX=0.5;exitY=1;exitDx=0;exitDy=0;entryX=0.5;entryY=0;entryDx=0;entryDy=0;strokeWidth=2;" edge="1" parent="1" source="eS9JZNQ0svhB8HKSOFD9-99" target="eS9JZNQ0svhB8HKSOFD9-110">
          <mxGeometry relative="1" as="geometry">
            <Array as="points">
              <mxPoint x="835" y="-150" />
              <mxPoint x="1000" y="-150" />
            </Array>
          </mxGeometry>
        </mxCell>
        <mxCell id="eS9JZNQ0svhB8HKSOFD9-112" value="&lt;font style=&quot;font-size: 14px;&quot;&gt;defines&lt;/font&gt;" style="edgeLabel;html=1;align=center;verticalAlign=middle;resizable=0;points=[];" vertex="1" connectable="0" parent="eS9JZNQ0svhB8HKSOFD9-111">
          <mxGeometry x="-0.6114" y="1" relative="1" as="geometry">
            <mxPoint x="76" y="1" as="offset" />
          </mxGeometry>
        </mxCell>
        <mxCell id="eS9JZNQ0svhB8HKSOFD9-117" style="edgeStyle=orthogonalEdgeStyle;rounded=0;orthogonalLoop=1;jettySize=auto;html=1;exitX=0.5;exitY=1;exitDx=0;exitDy=0;entryX=0.5;entryY=0;entryDx=0;entryDy=0;strokeWidth=2;" edge="1" parent="1" source="eS9JZNQ0svhB8HKSOFD9-99" target="eS9JZNQ0svhB8HKSOFD9-113">
          <mxGeometry relative="1" as="geometry" />
        </mxCell>
        <mxCell id="eS9JZNQ0svhB8HKSOFD9-99" value="Governance Strategy" style="ellipse;whiteSpace=wrap;html=1;strokeWidth=2;fillColor=#dae8fc;strokeColor=#6c8ebf;" vertex="1" parent="1">
          <mxGeometry x="775" y="-250" width="120" height="60" as="geometry" />
        </mxCell>
        <mxCell id="eS9JZNQ0svhB8HKSOFD9-100" value="Governance&amp;nbsp; Body" style="ellipse;whiteSpace=wrap;html=1;strokeWidth=2;fillColor=#dae8fc;strokeColor=#6c8ebf;" vertex="1" parent="1">
          <mxGeometry x="470" y="-250" width="120" height="60" as="geometry" />
        </mxCell>
        <mxCell id="eS9JZNQ0svhB8HKSOFD9-101" value="Transparency" style="ellipse;whiteSpace=wrap;html=1;strokeWidth=2;fillColor=#dae8fc;strokeColor=#6c8ebf;" vertex="1" parent="1">
          <mxGeometry x="-20" y="-100" width="120" height="60" as="geometry" />
        </mxCell>
        <mxCell id="eS9JZNQ0svhB8HKSOFD9-102" value="Quality" style="ellipse;whiteSpace=wrap;html=1;strokeWidth=2;fillColor=#dae8fc;strokeColor=#6c8ebf;" vertex="1" parent="1">
          <mxGeometry x="110" y="-100" width="120" height="60" as="geometry" />
        </mxCell>
        <mxCell id="eS9JZNQ0svhB8HKSOFD9-103" value="Compliance" style="ellipse;whiteSpace=wrap;html=1;strokeWidth=2;fillColor=#dae8fc;strokeColor=#6c8ebf;" vertex="1" parent="1">
          <mxGeometry x="240" y="-100" width="120" height="60" as="geometry" />
        </mxCell>
        <mxCell id="eS9JZNQ0svhB8HKSOFD9-104" style="edgeStyle=orthogonalEdgeStyle;rounded=1;orthogonalLoop=1;jettySize=auto;html=1;exitX=0.5;exitY=0;exitDx=0;exitDy=0;entryX=0.5;entryY=1;entryDx=0;entryDy=0;dashed=1;dashPattern=8 8;strokeWidth=2;" edge="1" parent="1" source="eS9JZNQ0svhB8HKSOFD9-101" target="eS9JZNQ0svhB8HKSOFD9-98">
          <mxGeometry relative="1" as="geometry">
            <mxPoint x="50" y="170" as="sourcePoint" />
            <mxPoint x="-70" y="380" as="targetPoint" />
          </mxGeometry>
        </mxCell>
        <mxCell id="eS9JZNQ0svhB8HKSOFD9-105" style="edgeStyle=orthogonalEdgeStyle;rounded=1;orthogonalLoop=1;jettySize=auto;html=1;exitX=0.5;exitY=0;exitDx=0;exitDy=0;entryX=0.5;entryY=1;entryDx=0;entryDy=0;dashed=1;dashPattern=8 8;strokeWidth=2;" edge="1" parent="1" source="eS9JZNQ0svhB8HKSOFD9-102" target="eS9JZNQ0svhB8HKSOFD9-98">
          <mxGeometry relative="1" as="geometry">
            <mxPoint x="310" y="30" as="sourcePoint" />
            <mxPoint x="190" y="240" as="targetPoint" />
          </mxGeometry>
        </mxCell>
        <mxCell id="eS9JZNQ0svhB8HKSOFD9-106" style="edgeStyle=orthogonalEdgeStyle;rounded=1;orthogonalLoop=1;jettySize=auto;html=1;exitX=0.5;exitY=0;exitDx=0;exitDy=0;entryX=0.5;entryY=1;entryDx=0;entryDy=0;dashed=1;dashPattern=8 8;strokeWidth=2;" edge="1" parent="1" source="eS9JZNQ0svhB8HKSOFD9-103" target="eS9JZNQ0svhB8HKSOFD9-98">
          <mxGeometry relative="1" as="geometry">
            <mxPoint x="130" y="-20" as="sourcePoint" />
            <mxPoint x="10" y="190" as="targetPoint" />
          </mxGeometry>
        </mxCell>
        <mxCell id="eS9JZNQ0svhB8HKSOFD9-107" style="edgeStyle=orthogonalEdgeStyle;rounded=1;orthogonalLoop=1;jettySize=auto;html=1;exitX=0.5;exitY=0;exitDx=0;exitDy=0;entryX=0.5;entryY=1;entryDx=0;entryDy=0;dashed=1;dashPattern=8 8;strokeWidth=2;" edge="1" parent="1" source="eS9JZNQ0svhB8HKSOFD9-99" target="eS9JZNQ0svhB8HKSOFD9-97">
          <mxGeometry relative="1" as="geometry">
            <mxPoint x="1000" y="-290" as="sourcePoint" />
            <mxPoint x="880" y="-80" as="targetPoint" />
          </mxGeometry>
        </mxCell>
        <mxCell id="eS9JZNQ0svhB8HKSOFD9-108" style="edgeStyle=orthogonalEdgeStyle;rounded=1;orthogonalLoop=1;jettySize=auto;html=1;exitX=0.5;exitY=0;exitDx=0;exitDy=0;entryX=0.5;entryY=1;entryDx=0;entryDy=0;dashed=1;dashPattern=8 8;strokeWidth=2;" edge="1" parent="1" source="eS9JZNQ0svhB8HKSOFD9-98" target="eS9JZNQ0svhB8HKSOFD9-97">
          <mxGeometry relative="1" as="geometry">
            <mxPoint x="679.52" y="-170" as="sourcePoint" />
            <mxPoint x="559.52" y="40" as="targetPoint" />
          </mxGeometry>
        </mxCell>
        <mxCell id="eS9JZNQ0svhB8HKSOFD9-109" style="edgeStyle=orthogonalEdgeStyle;rounded=1;orthogonalLoop=1;jettySize=auto;html=1;exitX=0.5;exitY=0;exitDx=0;exitDy=0;entryX=0.5;entryY=1;entryDx=0;entryDy=0;dashed=1;dashPattern=8 8;strokeWidth=2;" edge="1" parent="1" source="eS9JZNQ0svhB8HKSOFD9-100" target="eS9JZNQ0svhB8HKSOFD9-97">
          <mxGeometry relative="1" as="geometry">
            <mxPoint x="1210" y="-280" as="sourcePoint" />
            <mxPoint x="1090" y="-70" as="targetPoint" />
          </mxGeometry>
        </mxCell>
        <mxCell id="eS9JZNQ0svhB8HKSOFD9-110" value="Goal" style="ellipse;whiteSpace=wrap;html=1;strokeWidth=2;fillColor=#dae8fc;strokeColor=#6c8ebf;" vertex="1" parent="1">
          <mxGeometry x="940" y="-100" width="120" height="60" as="geometry" />
        </mxCell>
        <mxCell id="eS9JZNQ0svhB8HKSOFD9-119" style="edgeStyle=orthogonalEdgeStyle;rounded=1;orthogonalLoop=1;jettySize=auto;html=1;exitX=0.5;exitY=1;exitDx=0;exitDy=0;entryX=0.5;entryY=1;entryDx=0;entryDy=0;strokeWidth=2;" edge="1" parent="1" source="eS9JZNQ0svhB8HKSOFD9-113" target="eS9JZNQ0svhB8HKSOFD9-101">
          <mxGeometry relative="1" as="geometry">
            <Array as="points">
              <mxPoint x="835" />
              <mxPoint x="40" />
            </Array>
          </mxGeometry>
        </mxCell>
        <mxCell id="eS9JZNQ0svhB8HKSOFD9-120" style="edgeStyle=orthogonalEdgeStyle;rounded=1;orthogonalLoop=1;jettySize=auto;html=1;exitX=0.5;exitY=1;exitDx=0;exitDy=0;entryX=0.5;entryY=1;entryDx=0;entryDy=0;strokeWidth=2;" edge="1" parent="1" source="eS9JZNQ0svhB8HKSOFD9-113" target="eS9JZNQ0svhB8HKSOFD9-102">
          <mxGeometry relative="1" as="geometry">
            <Array as="points">
              <mxPoint x="835" />
              <mxPoint x="170" />
            </Array>
          </mxGeometry>
        </mxCell>
        <mxCell id="eS9JZNQ0svhB8HKSOFD9-121" style="edgeStyle=orthogonalEdgeStyle;rounded=1;orthogonalLoop=1;jettySize=auto;html=1;exitX=0.5;exitY=1;exitDx=0;exitDy=0;entryX=0.5;entryY=1;entryDx=0;entryDy=0;strokeWidth=2;" edge="1" parent="1" source="eS9JZNQ0svhB8HKSOFD9-113" target="eS9JZNQ0svhB8HKSOFD9-103">
          <mxGeometry relative="1" as="geometry">
            <Array as="points">
              <mxPoint x="835" />
              <mxPoint x="300" />
            </Array>
          </mxGeometry>
        </mxCell>
        <mxCell id="eS9JZNQ0svhB8HKSOFD9-122" value="&lt;font style=&quot;font-size: 14px;&quot;&gt;ensures&lt;/font&gt;" style="edgeLabel;html=1;align=center;verticalAlign=middle;resizable=0;points=[];" vertex="1" connectable="0" parent="eS9JZNQ0svhB8HKSOFD9-121">
          <mxGeometry x="-0.0237" y="3" relative="1" as="geometry">
            <mxPoint x="-5" y="-3" as="offset" />
          </mxGeometry>
        </mxCell>
        <mxCell id="eS9JZNQ0svhB8HKSOFD9-113" value="Objective" style="ellipse;whiteSpace=wrap;html=1;strokeWidth=2;fillColor=#dae8fc;strokeColor=#6c8ebf;" vertex="1" parent="1">
          <mxGeometry x="775" y="-100" width="120" height="60" as="geometry" />
        </mxCell>
        <mxCell id="eS9JZNQ0svhB8HKSOFD9-115" value="&lt;font style=&quot;font-size: 20px;&quot;&gt;1...&lt;/font&gt;" style="edgeLabel;html=1;align=center;verticalAlign=middle;resizable=0;points=[];" vertex="1" connectable="0" parent="1">
          <mxGeometry x="989.9972413793189" y="-130" as="geometry">
            <mxPoint x="16" y="-1" as="offset" />
          </mxGeometry>
        </mxCell>
        <mxCell id="eS9JZNQ0svhB8HKSOFD9-118" value="&lt;font style=&quot;font-size: 20px;&quot;&gt;1...&lt;/font&gt;" style="edgeLabel;html=1;align=center;verticalAlign=middle;resizable=0;points=[];" vertex="1" connectable="0" parent="1">
          <mxGeometry x="824.9972413793189" y="-130" as="geometry">
            <mxPoint x="16" y="-1" as="offset" />
          </mxGeometry>
        </mxCell>
        <mxCell id="eS9JZNQ0svhB8HKSOFD9-123" value="&lt;font style=&quot;font-size: 20px;&quot;&gt;1...&lt;/font&gt;" style="edgeLabel;html=1;align=center;verticalAlign=middle;resizable=0;points=[];" vertex="1" connectable="0" parent="1">
          <mxGeometry x="526.9972413793189" y="-14" as="geometry">
            <mxPoint x="309" y="-5" as="offset" />
          </mxGeometry>
        </mxCell>
        <mxCell id="eS9JZNQ0svhB8HKSOFD9-124" value="&lt;font style=&quot;font-size: 20px;&quot;&gt;1&lt;/font&gt;" style="edgeLabel;html=1;align=center;verticalAlign=middle;resizable=0;points=[];" vertex="1" connectable="0" parent="1">
          <mxGeometry x="300.00333333333344" y="-14" as="geometry" />
        </mxCell>
        <mxCell id="eS9JZNQ0svhB8HKSOFD9-127" value="&lt;font style=&quot;font-size: 20px;&quot;&gt;1&lt;/font&gt;" style="edgeLabel;html=1;align=center;verticalAlign=middle;resizable=0;points=[];" vertex="1" connectable="0" parent="1">
          <mxGeometry x="310.00333333333344" y="-11" as="geometry">
            <mxPoint x="-272" y="-3" as="offset" />
          </mxGeometry>
        </mxCell>
        <mxCell id="eS9JZNQ0svhB8HKSOFD9-130" style="edgeStyle=orthogonalEdgeStyle;rounded=0;orthogonalLoop=1;jettySize=auto;html=1;exitX=0;exitY=0.5;exitDx=0;exitDy=0;strokeWidth=2;" edge="1" parent="1" source="eS9JZNQ0svhB8HKSOFD9-128" target="eS9JZNQ0svhB8HKSOFD9-99">
          <mxGeometry relative="1" as="geometry" />
        </mxCell>
        <mxCell id="eS9JZNQ0svhB8HKSOFD9-131" value="&lt;font style=&quot;font-size: 15px;&quot;&gt;needs&lt;/font&gt;" style="edgeLabel;html=1;align=center;verticalAlign=middle;resizable=0;points=[];" vertex="1" connectable="0" parent="eS9JZNQ0svhB8HKSOFD9-130">
          <mxGeometry x="-0.1228" y="-3" relative="1" as="geometry">
            <mxPoint x="-12" as="offset" />
          </mxGeometry>
        </mxCell>
        <mxCell id="eS9JZNQ0svhB8HKSOFD9-137" style="edgeStyle=orthogonalEdgeStyle;rounded=0;orthogonalLoop=1;jettySize=auto;html=1;exitX=0.5;exitY=1;exitDx=0;exitDy=0;strokeWidth=2;entryX=0.5;entryY=0;entryDx=0;entryDy=0;" edge="1" parent="1" source="eS9JZNQ0svhB8HKSOFD9-128" target="eS9JZNQ0svhB8HKSOFD9-138">
          <mxGeometry relative="1" as="geometry">
            <mxPoint x="1200.230769230769" y="-100" as="targetPoint" />
          </mxGeometry>
        </mxCell>
        <mxCell id="eS9JZNQ0svhB8HKSOFD9-141" value="&lt;font style=&quot;font-size: 14px;&quot;&gt;needs&lt;/font&gt;" style="edgeLabel;html=1;align=center;verticalAlign=middle;resizable=0;points=[];" vertex="1" connectable="0" parent="eS9JZNQ0svhB8HKSOFD9-137">
          <mxGeometry x="-0.0744" y="2" relative="1" as="geometry">
            <mxPoint as="offset" />
          </mxGeometry>
        </mxCell>
        <mxCell id="eS9JZNQ0svhB8HKSOFD9-171" style="edgeStyle=orthogonalEdgeStyle;rounded=0;orthogonalLoop=1;jettySize=auto;html=1;exitX=1;exitY=1;exitDx=0;exitDy=0;entryX=0;entryY=0.5;entryDx=0;entryDy=0;strokeWidth=2;" edge="1" parent="1" source="eS9JZNQ0svhB8HKSOFD9-128" target="eS9JZNQ0svhB8HKSOFD9-37">
          <mxGeometry relative="1" as="geometry">
            <Array as="points">
              <mxPoint x="1242" y="-170" />
              <mxPoint x="1242" y="-60" />
            </Array>
          </mxGeometry>
        </mxCell>
        <mxCell id="eS9JZNQ0svhB8HKSOFD9-172" value="&lt;font style=&quot;font-size: 14px;&quot;&gt;has&lt;/font&gt;" style="edgeLabel;html=1;align=center;verticalAlign=middle;resizable=0;points=[];" vertex="1" connectable="0" parent="eS9JZNQ0svhB8HKSOFD9-171">
          <mxGeometry x="-0.2796" y="3" relative="1" as="geometry">
            <mxPoint as="offset" />
          </mxGeometry>
        </mxCell>
        <mxCell id="eS9JZNQ0svhB8HKSOFD9-271" style="edgeStyle=orthogonalEdgeStyle;rounded=1;orthogonalLoop=1;jettySize=auto;html=1;exitX=1;exitY=0.5;exitDx=0;exitDy=0;strokeWidth=2;" edge="1" parent="1" source="eS9JZNQ0svhB8HKSOFD9-128" target="eS9JZNQ0svhB8HKSOFD9-206">
          <mxGeometry relative="1" as="geometry" />
        </mxCell>
        <mxCell id="eS9JZNQ0svhB8HKSOFD9-272" style="edgeStyle=orthogonalEdgeStyle;rounded=1;orthogonalLoop=1;jettySize=auto;html=1;exitX=1;exitY=0.5;exitDx=0;exitDy=0;entryX=0;entryY=0.5;entryDx=0;entryDy=0;strokeWidth=2;" edge="1" parent="1" source="eS9JZNQ0svhB8HKSOFD9-128" target="eS9JZNQ0svhB8HKSOFD9-205">
          <mxGeometry relative="1" as="geometry" />
        </mxCell>
        <mxCell id="eS9JZNQ0svhB8HKSOFD9-273" style="edgeStyle=orthogonalEdgeStyle;rounded=1;orthogonalLoop=1;jettySize=auto;html=1;exitX=1;exitY=0.5;exitDx=0;exitDy=0;entryX=0;entryY=0.5;entryDx=0;entryDy=0;strokeWidth=2;" edge="1" parent="1" source="eS9JZNQ0svhB8HKSOFD9-128" target="eS9JZNQ0svhB8HKSOFD9-207">
          <mxGeometry relative="1" as="geometry">
            <Array as="points">
              <mxPoint x="1380" y="-220" />
              <mxPoint x="1380" y="-143" />
            </Array>
          </mxGeometry>
        </mxCell>
        <mxCell id="eS9JZNQ0svhB8HKSOFD9-274" value="&lt;font style=&quot;font-size: 14px;&quot;&gt;needs&lt;/font&gt;" style="edgeLabel;html=1;align=center;verticalAlign=middle;resizable=0;points=[];" vertex="1" connectable="0" parent="eS9JZNQ0svhB8HKSOFD9-273">
          <mxGeometry x="-0.5458" y="-3" relative="1" as="geometry">
            <mxPoint x="-6" y="-2" as="offset" />
          </mxGeometry>
        </mxCell>
        <mxCell id="eS9JZNQ0svhB8HKSOFD9-128" value="Enterprise" style="ellipse;whiteSpace=wrap;html=1;strokeWidth=2;fillColor=#d5e8d4;strokeColor=#82b366;" vertex="1" parent="1">
          <mxGeometry x="1140" y="-250" width="120" height="60" as="geometry" />
        </mxCell>
        <mxCell id="eS9JZNQ0svhB8HKSOFD9-129" value="&lt;font style=&quot;font-size: 20px;&quot;&gt;1&lt;/font&gt;" style="edgeLabel;html=1;align=center;verticalAlign=middle;resizable=0;points=[];" vertex="1" connectable="0" parent="1">
          <mxGeometry x="311.00333333333344" y="-7" as="geometry">
            <mxPoint x="-142" y="-7" as="offset" />
          </mxGeometry>
        </mxCell>
        <mxCell id="eS9JZNQ0svhB8HKSOFD9-133" value="&lt;font style=&quot;font-size: 20px;&quot;&gt;1&lt;/font&gt;" style="edgeLabel;html=1;align=center;verticalAlign=middle;resizable=0;points=[];" vertex="1" connectable="0" parent="1">
          <mxGeometry x="300.00333333333344" as="geometry">
            <mxPoint x="1637" y="-443" as="offset" />
          </mxGeometry>
        </mxCell>
        <mxCell id="eS9JZNQ0svhB8HKSOFD9-135" value="&lt;font style=&quot;font-size: 20px;&quot;&gt;1&lt;/font&gt;" style="edgeLabel;html=1;align=center;verticalAlign=middle;resizable=0;points=[];" vertex="1" connectable="0" parent="1">
          <mxGeometry x="930.0033333333334" y="-220" as="geometry" />
        </mxCell>
        <mxCell id="eS9JZNQ0svhB8HKSOFD9-136" value="&lt;font style=&quot;font-size: 20px;&quot;&gt;1&lt;/font&gt;" style="edgeLabel;html=1;align=center;verticalAlign=middle;resizable=0;points=[];" vertex="1" connectable="0" parent="1">
          <mxGeometry x="1120.0033333333336" y="-220" as="geometry" />
        </mxCell>
        <mxCell id="eS9JZNQ0svhB8HKSOFD9-143" style="edgeStyle=orthogonalEdgeStyle;rounded=1;orthogonalLoop=1;jettySize=auto;html=1;exitX=0;exitY=0.5;exitDx=0;exitDy=0;strokeWidth=2;" edge="1" parent="1" source="eS9JZNQ0svhB8HKSOFD9-138" target="eS9JZNQ0svhB8HKSOFD9-142">
          <mxGeometry relative="1" as="geometry" />
        </mxCell>
        <mxCell id="eS9JZNQ0svhB8HKSOFD9-148" style="edgeStyle=orthogonalEdgeStyle;rounded=1;orthogonalLoop=1;jettySize=auto;html=1;exitX=0;exitY=0.5;exitDx=0;exitDy=0;entryX=1;entryY=0.5;entryDx=0;entryDy=0;strokeWidth=2;" edge="1" parent="1" source="eS9JZNQ0svhB8HKSOFD9-138" target="eS9JZNQ0svhB8HKSOFD9-147">
          <mxGeometry relative="1" as="geometry" />
        </mxCell>
        <mxCell id="eS9JZNQ0svhB8HKSOFD9-149" value="&lt;font style=&quot;font-size: 14px;&quot;&gt;defines&lt;/font&gt;" style="edgeLabel;html=1;align=center;verticalAlign=middle;resizable=0;points=[];" vertex="1" connectable="0" parent="eS9JZNQ0svhB8HKSOFD9-148">
          <mxGeometry x="-0.4826" y="-2" relative="1" as="geometry">
            <mxPoint as="offset" />
          </mxGeometry>
        </mxCell>
        <mxCell id="eS9JZNQ0svhB8HKSOFD9-138" value="Steering Committee" style="ellipse;whiteSpace=wrap;html=1;strokeWidth=2;fillColor=#dae8fc;strokeColor=#6c8ebf;" vertex="1" parent="1">
          <mxGeometry x="1140" y="60" width="120" height="60" as="geometry" />
        </mxCell>
        <mxCell id="eS9JZNQ0svhB8HKSOFD9-139" value="&lt;font style=&quot;font-size: 20px;&quot;&gt;1&lt;/font&gt;" style="edgeLabel;html=1;align=center;verticalAlign=middle;resizable=0;points=[];" vertex="1" connectable="0" parent="1">
          <mxGeometry x="1200.0033333333336" y="-170" as="geometry" />
        </mxCell>
        <mxCell id="eS9JZNQ0svhB8HKSOFD9-140" value="&lt;font style=&quot;font-size: 20px;&quot;&gt;1&lt;/font&gt;" style="edgeLabel;html=1;align=center;verticalAlign=middle;resizable=0;points=[];" vertex="1" connectable="0" parent="1">
          <mxGeometry x="1207.0033333333336" y="19" as="geometry">
            <mxPoint x="-8" y="-2" as="offset" />
          </mxGeometry>
        </mxCell>
        <mxCell id="eS9JZNQ0svhB8HKSOFD9-155" style="edgeStyle=orthogonalEdgeStyle;rounded=1;orthogonalLoop=1;jettySize=auto;html=1;exitX=0;exitY=0.5;exitDx=0;exitDy=0;entryX=0.5;entryY=0;entryDx=0;entryDy=0;strokeWidth=2;" edge="1" parent="1" source="eS9JZNQ0svhB8HKSOFD9-142" target="eS9JZNQ0svhB8HKSOFD9-156">
          <mxGeometry relative="1" as="geometry">
            <mxPoint x="500" y="140" as="targetPoint" />
          </mxGeometry>
        </mxCell>
        <mxCell id="eS9JZNQ0svhB8HKSOFD9-142" value="Strategy" style="ellipse;whiteSpace=wrap;html=1;strokeWidth=2;fillColor=#dae8fc;strokeColor=#6c8ebf;" vertex="1" parent="1">
          <mxGeometry x="785" y="60" width="120" height="60" as="geometry" />
        </mxCell>
        <mxCell id="eS9JZNQ0svhB8HKSOFD9-145" value="&lt;font style=&quot;font-size: 20px;&quot;&gt;1&lt;/font&gt;" style="edgeLabel;html=1;align=center;verticalAlign=middle;resizable=0;points=[];" vertex="1" connectable="0" parent="1">
          <mxGeometry x="1120.0033333333336" y="90" as="geometry" />
        </mxCell>
        <mxCell id="eS9JZNQ0svhB8HKSOFD9-146" value="&lt;font style=&quot;font-size: 20px;&quot;&gt;1...&lt;/font&gt;" style="edgeLabel;html=1;align=center;verticalAlign=middle;resizable=0;points=[];" vertex="1" connectable="0" parent="1">
          <mxGeometry x="940.0033333333334" y="90" as="geometry" />
        </mxCell>
        <mxCell id="eS9JZNQ0svhB8HKSOFD9-147" value="Program" style="ellipse;whiteSpace=wrap;html=1;strokeWidth=2;fillColor=#dae8fc;strokeColor=#6c8ebf;" vertex="1" parent="1">
          <mxGeometry x="785" y="150" width="120" height="60" as="geometry" />
        </mxCell>
        <mxCell id="eS9JZNQ0svhB8HKSOFD9-150" value="&lt;font style=&quot;font-size: 20px;&quot;&gt;1...&lt;/font&gt;" style="edgeLabel;html=1;align=center;verticalAlign=middle;resizable=0;points=[];" vertex="1" connectable="0" parent="1">
          <mxGeometry x="940.0033333333334" y="180" as="geometry" />
        </mxCell>
        <mxCell id="eS9JZNQ0svhB8HKSOFD9-151" style="edgeStyle=orthogonalEdgeStyle;rounded=1;orthogonalLoop=1;jettySize=auto;html=1;exitX=0.5;exitY=0;exitDx=0;exitDy=0;entryX=1;entryY=0.5;entryDx=0;entryDy=0;strokeWidth=2;" edge="1" parent="1" source="eS9JZNQ0svhB8HKSOFD9-142" target="eS9JZNQ0svhB8HKSOFD9-113">
          <mxGeometry relative="1" as="geometry">
            <Array as="points">
              <mxPoint x="845" y="10" />
              <mxPoint x="920" y="10" />
              <mxPoint x="920" y="-70" />
            </Array>
          </mxGeometry>
        </mxCell>
        <mxCell id="eS9JZNQ0svhB8HKSOFD9-152" value="&lt;font style=&quot;font-size: 14px;&quot;&gt;realizes&lt;/font&gt;" style="edgeLabel;html=1;align=center;verticalAlign=middle;resizable=0;points=[];" vertex="1" connectable="0" parent="eS9JZNQ0svhB8HKSOFD9-151">
          <mxGeometry x="-0.0771" y="1" relative="1" as="geometry">
            <mxPoint x="-9" as="offset" />
          </mxGeometry>
        </mxCell>
        <mxCell id="eS9JZNQ0svhB8HKSOFD9-153" value="&lt;font style=&quot;font-size: 20px;&quot;&gt;1&lt;/font&gt;" style="edgeLabel;html=1;align=center;verticalAlign=middle;resizable=0;points=[];" vertex="1" connectable="0" parent="1">
          <mxGeometry x="845.0033333333334" y="40" as="geometry" />
        </mxCell>
        <mxCell id="eS9JZNQ0svhB8HKSOFD9-154" value="&lt;font style=&quot;font-size: 20px;&quot;&gt;1...&lt;/font&gt;" style="edgeLabel;html=1;align=center;verticalAlign=middle;resizable=0;points=[];" vertex="1" connectable="0" parent="1">
          <mxGeometry x="920.0033333333334" y="-40" as="geometry" />
        </mxCell>
        <mxCell id="eS9JZNQ0svhB8HKSOFD9-160" style="edgeStyle=orthogonalEdgeStyle;rounded=0;orthogonalLoop=1;jettySize=auto;html=1;exitX=0.5;exitY=1;exitDx=0;exitDy=0;strokeWidth=2;" edge="1" parent="1" source="eS9JZNQ0svhB8HKSOFD9-156">
          <mxGeometry relative="1" as="geometry">
            <mxPoint x="500.0322580645161" y="350" as="targetPoint" />
          </mxGeometry>
        </mxCell>
        <mxCell id="eS9JZNQ0svhB8HKSOFD9-162" value="&lt;font style=&quot;font-size: 14px;&quot;&gt;defines&lt;/font&gt;" style="edgeLabel;html=1;align=center;verticalAlign=middle;resizable=0;points=[];" vertex="1" connectable="0" parent="eS9JZNQ0svhB8HKSOFD9-160">
          <mxGeometry x="-0.1879" y="1" relative="1" as="geometry">
            <mxPoint as="offset" />
          </mxGeometry>
        </mxCell>
        <mxCell id="eS9JZNQ0svhB8HKSOFD9-156" value="Policy" style="ellipse;whiteSpace=wrap;html=1;strokeWidth=2;fillColor=#dae8fc;strokeColor=#6c8ebf;" vertex="1" parent="1">
          <mxGeometry x="440" y="150" width="120" height="60" as="geometry" />
        </mxCell>
        <mxCell id="eS9JZNQ0svhB8HKSOFD9-157" value="&lt;font style=&quot;font-size: 14px;&quot;&gt;defines&lt;/font&gt;" style="edgeLabel;html=1;align=center;verticalAlign=middle;resizable=0;points=[];" vertex="1" connectable="0" parent="1">
          <mxGeometry x="639.9990322580644" y="90" as="geometry" />
        </mxCell>
        <mxCell id="eS9JZNQ0svhB8HKSOFD9-158" value="&lt;font style=&quot;font-size: 20px;&quot;&gt;1...&lt;/font&gt;" style="edgeLabel;html=1;align=center;verticalAlign=middle;resizable=0;points=[];" vertex="1" connectable="0" parent="1">
          <mxGeometry x="500.00333333333344" y="110" as="geometry" />
        </mxCell>
        <mxCell id="eS9JZNQ0svhB8HKSOFD9-159" value="&lt;font style=&quot;font-size: 20px;&quot;&gt;1&lt;/font&gt;" style="edgeLabel;html=1;align=center;verticalAlign=middle;resizable=0;points=[];" vertex="1" connectable="0" parent="1">
          <mxGeometry x="760.0033333333336" y="90" as="geometry" />
        </mxCell>
        <mxCell id="eS9JZNQ0svhB8HKSOFD9-233" style="edgeStyle=orthogonalEdgeStyle;rounded=1;orthogonalLoop=1;jettySize=auto;html=1;exitX=0;exitY=0.5;exitDx=0;exitDy=0;entryX=0.5;entryY=1;entryDx=0;entryDy=0;strokeWidth=2;" edge="1" parent="1" source="eS9JZNQ0svhB8HKSOFD9-161" target="eS9JZNQ0svhB8HKSOFD9-76">
          <mxGeometry relative="1" as="geometry">
            <Array as="points">
              <mxPoint x="430" y="380" />
              <mxPoint x="430" y="1040" />
              <mxPoint x="1124" y="1040" />
            </Array>
          </mxGeometry>
        </mxCell>
        <mxCell id="eS9JZNQ0svhB8HKSOFD9-234" value="&lt;font style=&quot;font-size: 14px;&quot;&gt;executes&lt;/font&gt;" style="edgeLabel;html=1;align=center;verticalAlign=middle;resizable=0;points=[];" vertex="1" connectable="0" parent="eS9JZNQ0svhB8HKSOFD9-233">
          <mxGeometry x="-0.408" y="3" relative="1" as="geometry">
            <mxPoint as="offset" />
          </mxGeometry>
        </mxCell>
        <mxCell id="eS9JZNQ0svhB8HKSOFD9-161" value="Rule" style="ellipse;whiteSpace=wrap;html=1;strokeWidth=2;fillColor=#dae8fc;strokeColor=#6c8ebf;" vertex="1" parent="1">
          <mxGeometry x="440" y="350" width="120" height="60" as="geometry" />
        </mxCell>
        <mxCell id="eS9JZNQ0svhB8HKSOFD9-163" value="&lt;font style=&quot;font-size: 20px;&quot;&gt;1...&lt;/font&gt;" style="edgeLabel;html=1;align=center;verticalAlign=middle;resizable=0;points=[];" vertex="1" connectable="0" parent="1">
          <mxGeometry x="500.00333333333344" y="310" as="geometry" />
        </mxCell>
        <mxCell id="eS9JZNQ0svhB8HKSOFD9-164" value="&lt;font style=&quot;font-size: 20px;&quot;&gt;1&lt;/font&gt;" style="edgeLabel;html=1;align=center;verticalAlign=middle;resizable=0;points=[];" vertex="1" connectable="0" parent="1">
          <mxGeometry x="500.00333333333356" y="230" as="geometry" />
        </mxCell>
        <mxCell id="eS9JZNQ0svhB8HKSOFD9-173" value="&lt;font style=&quot;font-size: 20px;&quot;&gt;1&lt;/font&gt;" style="edgeLabel;html=1;align=center;verticalAlign=middle;resizable=0;points=[];" vertex="1" connectable="0" parent="1">
          <mxGeometry x="1241.0033333333336" y="-180" as="geometry" />
        </mxCell>
        <mxCell id="eS9JZNQ0svhB8HKSOFD9-174" value="&lt;font style=&quot;font-size: 20px;&quot;&gt;1...&lt;/font&gt;" style="edgeLabel;html=1;align=center;verticalAlign=middle;resizable=0;points=[];" vertex="1" connectable="0" parent="1">
          <mxGeometry x="1280.0033333333336" y="-60" as="geometry" />
        </mxCell>
        <mxCell id="eS9JZNQ0svhB8HKSOFD9-178" value="&lt;font style=&quot;font-size: 20px;&quot;&gt;1&lt;/font&gt;" style="edgeLabel;html=1;align=center;verticalAlign=middle;resizable=0;points=[];" vertex="1" connectable="0" parent="1">
          <mxGeometry x="1077.0033333333336" y="95.5" as="geometry">
            <mxPoint x="243" y="-98" as="offset" />
          </mxGeometry>
        </mxCell>
        <mxCell id="eS9JZNQ0svhB8HKSOFD9-179" value="&lt;font style=&quot;font-size: 20px;&quot;&gt;1...&lt;/font&gt;" style="edgeLabel;html=1;align=center;verticalAlign=middle;resizable=0;points=[];" vertex="1" connectable="0" parent="1">
          <mxGeometry x="1390.0033333333336" y="770" as="geometry">
            <mxPoint x="-124" y="-7" as="offset" />
          </mxGeometry>
        </mxCell>
        <mxCell id="eS9JZNQ0svhB8HKSOFD9-180" value="&lt;font style=&quot;font-size: 20px;&quot;&gt;1&lt;/font&gt;" style="edgeLabel;html=1;align=center;verticalAlign=middle;resizable=0;points=[];" vertex="1" connectable="0" parent="1">
          <mxGeometry x="843.7033333333336" y="230" as="geometry" />
        </mxCell>
        <mxCell id="eS9JZNQ0svhB8HKSOFD9-181" value="&lt;font style=&quot;font-size: 20px;&quot;&gt;1...&lt;/font&gt;" style="edgeLabel;html=1;align=center;verticalAlign=middle;resizable=0;points=[];" vertex="1" connectable="0" parent="1">
          <mxGeometry x="1063.7033333333334" y="200" as="geometry">
            <mxPoint x="31" y="50" as="offset" />
          </mxGeometry>
        </mxCell>
        <mxCell id="eS9JZNQ0svhB8HKSOFD9-184" style="edgeStyle=orthogonalEdgeStyle;rounded=1;orthogonalLoop=1;jettySize=auto;html=1;exitX=0.5;exitY=1;exitDx=0;exitDy=0;entryX=1;entryY=0.5;entryDx=0;entryDy=0;strokeWidth=2;" edge="1" parent="1" source="eS9JZNQ0svhB8HKSOFD9-182" target="eS9JZNQ0svhB8HKSOFD9-71">
          <mxGeometry relative="1" as="geometry">
            <Array as="points">
              <mxPoint x="1700" y="990" />
            </Array>
          </mxGeometry>
        </mxCell>
        <mxCell id="eS9JZNQ0svhB8HKSOFD9-185" value="&lt;font style=&quot;font-size: 14px;&quot;&gt;creates&lt;/font&gt;" style="edgeLabel;html=1;align=center;verticalAlign=middle;resizable=0;points=[];" vertex="1" connectable="0" parent="eS9JZNQ0svhB8HKSOFD9-184">
          <mxGeometry x="-0.1599" y="4" relative="1" as="geometry">
            <mxPoint x="-4" y="1" as="offset" />
          </mxGeometry>
        </mxCell>
        <mxCell id="eS9JZNQ0svhB8HKSOFD9-189" style="edgeStyle=orthogonalEdgeStyle;rounded=1;orthogonalLoop=1;jettySize=auto;html=1;strokeWidth=2;exitX=0;exitY=0.5;exitDx=0;exitDy=0;entryX=0.5;entryY=0;entryDx=0;entryDy=0;" edge="1" parent="1" source="eS9JZNQ0svhB8HKSOFD9-182" target="eS9JZNQ0svhB8HKSOFD9-188">
          <mxGeometry relative="1" as="geometry">
            <mxPoint x="1639.94" y="40" as="sourcePoint" />
            <mxPoint x="1620.02" y="250" as="targetPoint" />
            <Array as="points">
              <mxPoint x="1620" y="66" />
            </Array>
          </mxGeometry>
        </mxCell>
        <mxCell id="eS9JZNQ0svhB8HKSOFD9-190" value="&lt;font style=&quot;font-size: 14px;&quot;&gt;has&lt;/font&gt;" style="edgeLabel;html=1;align=center;verticalAlign=middle;resizable=0;points=[];" vertex="1" connectable="0" parent="eS9JZNQ0svhB8HKSOFD9-189">
          <mxGeometry x="0.0301" y="-3" relative="1" as="geometry">
            <mxPoint x="3" y="-2" as="offset" />
          </mxGeometry>
        </mxCell>
        <mxCell id="eS9JZNQ0svhB8HKSOFD9-182" value="Departement" style="ellipse;whiteSpace=wrap;html=1;strokeWidth=2;fillColor=#d5e8d4;strokeColor=#82b366;" vertex="1" parent="1">
          <mxGeometry x="1639.92" y="35.5" width="120" height="60" as="geometry" />
        </mxCell>
        <mxCell id="eS9JZNQ0svhB8HKSOFD9-183" style="edgeStyle=orthogonalEdgeStyle;rounded=1;orthogonalLoop=1;jettySize=auto;html=1;exitX=0.5;exitY=0;exitDx=0;exitDy=0;entryX=1;entryY=0.5;entryDx=0;entryDy=0;dashed=1;dashPattern=8 8;strokeWidth=2;" edge="1" parent="1" source="eS9JZNQ0svhB8HKSOFD9-182" target="eS9JZNQ0svhB8HKSOFD9-37">
          <mxGeometry relative="1" as="geometry">
            <mxPoint x="1570" y="-260" as="sourcePoint" />
            <mxPoint x="1450" y="-50" as="targetPoint" />
            <Array as="points">
              <mxPoint x="1700" y="-60" />
            </Array>
          </mxGeometry>
        </mxCell>
        <mxCell id="eS9JZNQ0svhB8HKSOFD9-186" value="&lt;font style=&quot;font-size: 20px;&quot;&gt;1&lt;/font&gt;" style="edgeLabel;html=1;align=center;verticalAlign=middle;resizable=0;points=[];" vertex="1" connectable="0" parent="1">
          <mxGeometry x="1580.0033333333336" y="110" as="geometry">
            <mxPoint x="38" y="-2" as="offset" />
          </mxGeometry>
        </mxCell>
        <mxCell id="eS9JZNQ0svhB8HKSOFD9-187" value="&lt;font style=&quot;font-size: 20px;&quot;&gt;1...&lt;/font&gt;" style="edgeLabel;html=1;align=center;verticalAlign=middle;resizable=0;points=[];" vertex="1" connectable="0" parent="1">
          <mxGeometry x="1600.0033333333336" y="990" as="geometry">
            <mxPoint x="29" y="1" as="offset" />
          </mxGeometry>
        </mxCell>
        <mxCell id="eS9JZNQ0svhB8HKSOFD9-188" value="Employee" style="ellipse;whiteSpace=wrap;html=1;strokeWidth=2;fillColor=#dae8fc;strokeColor=#6c8ebf;" vertex="1" parent="1">
          <mxGeometry x="1560" y="275.5" width="120" height="60" as="geometry" />
        </mxCell>
        <mxCell id="eS9JZNQ0svhB8HKSOFD9-191" value="&lt;font style=&quot;font-size: 20px;&quot;&gt;1&lt;/font&gt;" style="edgeLabel;html=1;align=center;verticalAlign=middle;resizable=0;points=[];" vertex="1" connectable="0" parent="1">
          <mxGeometry x="1510.0033333333336" y="60" as="geometry">
            <mxPoint x="189" y="83" as="offset" />
          </mxGeometry>
        </mxCell>
        <mxCell id="eS9JZNQ0svhB8HKSOFD9-192" value="&lt;font style=&quot;font-size: 20px;&quot;&gt;1...&lt;/font&gt;" style="edgeLabel;html=1;align=center;verticalAlign=middle;resizable=0;points=[];" vertex="1" connectable="0" parent="1">
          <mxGeometry x="1620.0033333333336" y="254" as="geometry">
            <mxPoint x="-2" y="-31" as="offset" />
          </mxGeometry>
        </mxCell>
        <mxCell id="eS9JZNQ0svhB8HKSOFD9-193" value="&lt;font style=&quot;font-size: 20px;&quot;&gt;1&lt;/font&gt;" style="edgeLabel;html=1;align=center;verticalAlign=middle;resizable=0;points=[];" vertex="1" connectable="0" parent="1">
          <mxGeometry x="853.7033333333336" y="254" as="geometry">
            <mxPoint x="3" y="64" as="offset" />
          </mxGeometry>
        </mxCell>
        <mxCell id="eS9JZNQ0svhB8HKSOFD9-194" value="&lt;font style=&quot;font-size: 20px;&quot;&gt;1...&lt;/font&gt;" style="edgeLabel;html=1;align=center;verticalAlign=middle;resizable=0;points=[];" vertex="1" connectable="0" parent="1">
          <mxGeometry x="989.9933333333333" y="265.5" as="geometry">
            <mxPoint x="31" y="50" as="offset" />
          </mxGeometry>
        </mxCell>
        <mxCell id="eS9JZNQ0svhB8HKSOFD9-197" style="edgeStyle=orthogonalEdgeStyle;rounded=1;orthogonalLoop=1;jettySize=auto;html=1;exitX=0;exitY=0.5;exitDx=0;exitDy=0;entryX=1;entryY=1;entryDx=0;entryDy=0;strokeWidth=2;" edge="1" parent="1" source="eS9JZNQ0svhB8HKSOFD9-34" target="eS9JZNQ0svhB8HKSOFD9-27">
          <mxGeometry relative="1" as="geometry">
            <Array as="points">
              <mxPoint x="1060" y="440" />
              <mxPoint x="830" y="440" />
              <mxPoint x="830" y="341" />
            </Array>
          </mxGeometry>
        </mxCell>
        <mxCell id="eS9JZNQ0svhB8HKSOFD9-198" value="&lt;font style=&quot;font-size: 14px;&quot;&gt;has&lt;/font&gt;" style="edgeLabel;html=1;align=center;verticalAlign=middle;resizable=0;points=[];" vertex="1" connectable="0" parent="eS9JZNQ0svhB8HKSOFD9-197">
          <mxGeometry x="-0.4058" y="-3" relative="1" as="geometry">
            <mxPoint x="-33" y="3" as="offset" />
          </mxGeometry>
        </mxCell>
        <mxCell id="eS9JZNQ0svhB8HKSOFD9-199" value="&lt;span style=&quot;color: rgb(0, 0, 0); font-family: Helvetica; font-size: 20px; font-style: normal; font-variant-ligatures: normal; font-variant-caps: normal; font-weight: 400; letter-spacing: normal; orphans: 2; text-align: center; text-indent: 0px; text-transform: none; widows: 2; word-spacing: 0px; -webkit-text-stroke-width: 0px; background-color: rgb(255, 255, 255); text-decoration-thickness: initial; text-decoration-style: initial; text-decoration-color: initial; float: none; display: inline !important;&quot;&gt;1...&lt;/span&gt;" style="text;whiteSpace=wrap;html=1;" vertex="1" parent="1">
          <mxGeometry x="809.99" y="370" width="60" height="50" as="geometry" />
        </mxCell>
        <mxCell id="eS9JZNQ0svhB8HKSOFD9-202" value="&lt;font style=&quot;font-size: 20px;&quot;&gt;1&lt;/font&gt;" style="edgeLabel;html=1;align=center;verticalAlign=middle;resizable=0;points=[];" vertex="1" connectable="0" parent="1">
          <mxGeometry x="1023.6933333333336" y="376" as="geometry">
            <mxPoint x="3" y="64" as="offset" />
          </mxGeometry>
        </mxCell>
        <mxCell id="eS9JZNQ0svhB8HKSOFD9-203" value="&lt;font style=&quot;font-size: 20px;&quot;&gt;1&lt;/font&gt;" style="edgeLabel;html=1;align=center;verticalAlign=middle;resizable=0;points=[];" vertex="1" connectable="0" parent="1">
          <mxGeometry x="781.0033333333336" y="320" as="geometry">
            <mxPoint x="3" y="64" as="offset" />
          </mxGeometry>
        </mxCell>
        <mxCell id="eS9JZNQ0svhB8HKSOFD9-205" value="Design" style="ellipse;whiteSpace=wrap;html=1;strokeWidth=2;fillColor=#dae8fc;strokeColor=#6c8ebf;" vertex="1" parent="1">
          <mxGeometry x="1500" y="-324.5" width="120" height="60" as="geometry" />
        </mxCell>
        <mxCell id="eS9JZNQ0svhB8HKSOFD9-206" value="Blueprint" style="ellipse;whiteSpace=wrap;html=1;strokeWidth=2;fillColor=#dae8fc;strokeColor=#6c8ebf;" vertex="1" parent="1">
          <mxGeometry x="1500" y="-249" width="120" height="60" as="geometry" />
        </mxCell>
        <mxCell id="eS9JZNQ0svhB8HKSOFD9-207" value="Architecture" style="ellipse;whiteSpace=wrap;html=1;strokeWidth=2;fillColor=#dae8fc;strokeColor=#6c8ebf;" vertex="1" parent="1">
          <mxGeometry x="1500" y="-173.5" width="120" height="60" as="geometry" />
        </mxCell>
        <mxCell id="eS9JZNQ0svhB8HKSOFD9-213" value="&lt;font style=&quot;font-size: 20px;&quot;&gt;1...&lt;/font&gt;" style="edgeLabel;html=1;align=center;verticalAlign=middle;resizable=0;points=[];" vertex="1" connectable="0" parent="1">
          <mxGeometry x="1270.0033333333336" y="700" as="geometry">
            <mxPoint x="-124" y="-7" as="offset" />
          </mxGeometry>
        </mxCell>
        <mxCell id="eS9JZNQ0svhB8HKSOFD9-214" style="edgeStyle=orthogonalEdgeStyle;rounded=1;orthogonalLoop=1;jettySize=auto;html=1;exitX=0.5;exitY=0;exitDx=0;exitDy=0;strokeWidth=2;" edge="1" parent="1" source="eS9JZNQ0svhB8HKSOFD9-29" target="eS9JZNQ0svhB8HKSOFD9-27">
          <mxGeometry relative="1" as="geometry">
            <Array as="points">
              <mxPoint x="740" y="730" />
              <mxPoint x="740" y="730" />
            </Array>
          </mxGeometry>
        </mxCell>
        <mxCell id="eS9JZNQ0svhB8HKSOFD9-216" value="&lt;font style=&quot;font-size: 15px;&quot;&gt;defines&lt;/font&gt;" style="edgeLabel;html=1;align=center;verticalAlign=middle;resizable=0;points=[];" vertex="1" connectable="0" parent="eS9JZNQ0svhB8HKSOFD9-214">
          <mxGeometry x="0.3609" relative="1" as="geometry">
            <mxPoint as="offset" />
          </mxGeometry>
        </mxCell>
        <mxCell id="eS9JZNQ0svhB8HKSOFD9-217" value="&lt;font style=&quot;font-size: 20px;&quot;&gt;1...&lt;/font&gt;" style="edgeLabel;html=1;align=center;verticalAlign=middle;resizable=0;points=[];" vertex="1" connectable="0" parent="1">
          <mxGeometry x="707.0033333333333" y="335.5" as="geometry">
            <mxPoint x="31" y="50" as="offset" />
          </mxGeometry>
        </mxCell>
        <mxCell id="eS9JZNQ0svhB8HKSOFD9-218" value="&lt;font style=&quot;font-size: 20px;&quot;&gt;1&lt;/font&gt;" style="edgeLabel;html=1;align=center;verticalAlign=middle;resizable=0;points=[];" vertex="1" connectable="0" parent="1">
          <mxGeometry x="733.0033333333336" y="700" as="geometry">
            <mxPoint x="3" y="64" as="offset" />
          </mxGeometry>
        </mxCell>
        <mxCell id="eS9JZNQ0svhB8HKSOFD9-222" value="&lt;font style=&quot;font-size: 20px;&quot;&gt;1&lt;/font&gt;" style="edgeLabel;html=1;align=center;verticalAlign=middle;resizable=0;points=[];" vertex="1" connectable="0" parent="1">
          <mxGeometry x="839.9933333333336" y="754" as="geometry">
            <mxPoint x="3" y="64" as="offset" />
          </mxGeometry>
        </mxCell>
        <mxCell id="eS9JZNQ0svhB8HKSOFD9-223" style="edgeStyle=orthogonalEdgeStyle;rounded=1;orthogonalLoop=1;jettySize=auto;html=1;exitX=0;exitY=0.5;exitDx=0;exitDy=0;strokeWidth=2;fontSize=12;entryX=0.5;entryY=0;entryDx=0;entryDy=0;" edge="1" parent="1" source="eS9JZNQ0svhB8HKSOFD9-27" target="eS9JZNQ0svhB8HKSOFD9-79">
          <mxGeometry relative="1" as="geometry">
            <mxPoint x="717" y="330" as="sourcePoint" />
            <mxPoint x="550" y="960" as="targetPoint" />
            <Array as="points">
              <mxPoint x="660" y="320" />
              <mxPoint x="660" y="860" />
              <mxPoint x="550" y="860" />
            </Array>
          </mxGeometry>
        </mxCell>
        <mxCell id="eS9JZNQ0svhB8HKSOFD9-225" value="&lt;font style=&quot;font-size: 14px;&quot;&gt;linkedTo&lt;/font&gt;" style="edgeLabel;html=1;align=center;verticalAlign=middle;resizable=0;points=[];" vertex="1" connectable="0" parent="eS9JZNQ0svhB8HKSOFD9-223">
          <mxGeometry x="-0.4927" relative="1" as="geometry">
            <mxPoint as="offset" />
          </mxGeometry>
        </mxCell>
        <mxCell id="eS9JZNQ0svhB8HKSOFD9-226" value="&lt;font style=&quot;font-size: 20px;&quot;&gt;1&lt;/font&gt;" style="edgeLabel;html=1;align=center;verticalAlign=middle;resizable=0;points=[];" vertex="1" connectable="0" parent="1">
          <mxGeometry x="680.0033333333336" y="254" as="geometry">
            <mxPoint x="3" y="64" as="offset" />
          </mxGeometry>
        </mxCell>
        <mxCell id="eS9JZNQ0svhB8HKSOFD9-227" value="&lt;font style=&quot;font-size: 20px;&quot;&gt;1&lt;/font&gt;" style="edgeLabel;html=1;align=center;verticalAlign=middle;resizable=0;points=[];" vertex="1" connectable="0" parent="1">
          <mxGeometry x="630.0033333333336" y="536" as="geometry">
            <mxPoint x="3" y="64" as="offset" />
          </mxGeometry>
        </mxCell>
        <mxCell id="eS9JZNQ0svhB8HKSOFD9-228" value="&lt;font style=&quot;font-size: 20px;&quot;&gt;1&lt;/font&gt;" style="edgeLabel;html=1;align=center;verticalAlign=middle;resizable=0;points=[];" vertex="1" connectable="0" parent="1">
          <mxGeometry x="546.0033333333336" y="850" as="geometry">
            <mxPoint x="3" y="64" as="offset" />
          </mxGeometry>
        </mxCell>
        <mxCell id="eS9JZNQ0svhB8HKSOFD9-231" value="&lt;font style=&quot;font-size: 20px;&quot;&gt;1&lt;/font&gt;" style="edgeLabel;html=1;align=center;verticalAlign=middle;resizable=0;points=[];" vertex="1" connectable="0" parent="1">
          <mxGeometry x="679.9972413793189" y="1200" as="geometry">
            <mxPoint x="-89" y="-263" as="offset" />
          </mxGeometry>
        </mxCell>
        <mxCell id="eS9JZNQ0svhB8HKSOFD9-232" value="&lt;font style=&quot;font-size: 20px;&quot;&gt;1&lt;/font&gt;" style="edgeLabel;html=1;align=center;verticalAlign=middle;resizable=0;points=[];" vertex="1" connectable="0" parent="1">
          <mxGeometry x="1407.997241379319" y="134.5" as="geometry">
            <mxPoint x="-29" y="-112" as="offset" />
          </mxGeometry>
        </mxCell>
        <mxCell id="eS9JZNQ0svhB8HKSOFD9-235" value="&lt;font style=&quot;font-size: 20px;&quot;&gt;1&lt;/font&gt;" style="edgeLabel;html=1;align=center;verticalAlign=middle;resizable=0;points=[];" vertex="1" connectable="0" parent="1">
          <mxGeometry x="427.00333333333356" y="388" as="geometry">
            <mxPoint x="3" y="64" as="offset" />
          </mxGeometry>
        </mxCell>
        <mxCell id="eS9JZNQ0svhB8HKSOFD9-237" value="&lt;font style=&quot;font-size: 20px;&quot;&gt;1...&lt;/font&gt;" style="edgeLabel;html=1;align=center;verticalAlign=middle;resizable=0;points=[];" vertex="1" connectable="0" parent="1">
          <mxGeometry x="1200.0033333333336" y="1044" as="geometry">
            <mxPoint x="-124" y="-7" as="offset" />
          </mxGeometry>
        </mxCell>
        <mxCell id="eS9JZNQ0svhB8HKSOFD9-285" style="edgeStyle=orthogonalEdgeStyle;rounded=1;orthogonalLoop=1;jettySize=auto;html=1;exitX=0.5;exitY=1;exitDx=0;exitDy=0;entryX=1;entryY=0;entryDx=0;entryDy=0;strokeWidth=2;" edge="1" parent="1" source="eS9JZNQ0svhB8HKSOFD9-238" target="eS9JZNQ0svhB8HKSOFD9-76">
          <mxGeometry relative="1" as="geometry">
            <Array as="points">
              <mxPoint x="1540" y="920" />
              <mxPoint x="1166" y="920" />
            </Array>
          </mxGeometry>
        </mxCell>
        <mxCell id="eS9JZNQ0svhB8HKSOFD9-286" value="&lt;font style=&quot;font-size: 14px;&quot;&gt;usedOn&lt;/font&gt;" style="edgeLabel;html=1;align=center;verticalAlign=middle;resizable=0;points=[];" vertex="1" connectable="0" parent="eS9JZNQ0svhB8HKSOFD9-285">
          <mxGeometry x="-0.0426" y="1" relative="1" as="geometry">
            <mxPoint as="offset" />
          </mxGeometry>
        </mxCell>
        <mxCell id="eS9JZNQ0svhB8HKSOFD9-238" value="Record Lifecycle" style="ellipse;whiteSpace=wrap;html=1;strokeWidth=2;fillColor=#dae8fc;strokeColor=#6c8ebf;" vertex="1" parent="1">
          <mxGeometry x="1480.0000000000002" y="610" width="120" height="60" as="geometry" />
        </mxCell>
        <mxCell id="eS9JZNQ0svhB8HKSOFD9-289" style="edgeStyle=orthogonalEdgeStyle;rounded=0;orthogonalLoop=1;jettySize=auto;html=1;exitX=0.5;exitY=1;exitDx=0;exitDy=0;strokeWidth=2;" edge="1" parent="1" source="eS9JZNQ0svhB8HKSOFD9-239" target="eS9JZNQ0svhB8HKSOFD9-238">
          <mxGeometry relative="1" as="geometry" />
        </mxCell>
        <mxCell id="eS9JZNQ0svhB8HKSOFD9-290" value="&lt;font style=&quot;font-size: 14px;&quot;&gt;defines&lt;/font&gt;" style="edgeLabel;html=1;align=center;verticalAlign=middle;resizable=0;points=[];" vertex="1" connectable="0" parent="eS9JZNQ0svhB8HKSOFD9-289">
          <mxGeometry x="-0.1645" y="-1" relative="1" as="geometry">
            <mxPoint as="offset" />
          </mxGeometry>
        </mxCell>
        <mxCell id="eS9JZNQ0svhB8HKSOFD9-239" value="Record Control Structure" style="ellipse;whiteSpace=wrap;html=1;strokeWidth=2;fillColor=#dae8fc;strokeColor=#6c8ebf;" vertex="1" parent="1">
          <mxGeometry x="1450" y="420" width="180" height="60" as="geometry" />
        </mxCell>
        <mxCell id="eS9JZNQ0svhB8HKSOFD9-240" value="Role" style="ellipse;whiteSpace=wrap;html=1;strokeWidth=2;fillColor=#dae8fc;strokeColor=#6c8ebf;" vertex="1" parent="1">
          <mxGeometry x="1430" y="130" width="120" height="60" as="geometry" />
        </mxCell>
        <mxCell id="eS9JZNQ0svhB8HKSOFD9-241" value="Risk And Compliance" style="ellipse;whiteSpace=wrap;html=1;strokeWidth=2;fillColor=#dae8fc;strokeColor=#6c8ebf;" vertex="1" parent="1">
          <mxGeometry x="2851" y="-234.5" width="170" height="60" as="geometry" />
        </mxCell>
        <mxCell id="eS9JZNQ0svhB8HKSOFD9-242" value="Records Management" style="ellipse;whiteSpace=wrap;html=1;strokeWidth=2;fillColor=#dae8fc;strokeColor=#6c8ebf;" vertex="1" parent="1">
          <mxGeometry x="2851" y="-424.5" width="150" height="60" as="geometry" />
        </mxCell>
        <mxCell id="eS9JZNQ0svhB8HKSOFD9-243" value="IT" style="ellipse;whiteSpace=wrap;html=1;strokeWidth=2;fillColor=#dae8fc;strokeColor=#6c8ebf;" vertex="1" parent="1">
          <mxGeometry x="2851" y="-794.5" width="120" height="60" as="geometry" />
        </mxCell>
        <mxCell id="eS9JZNQ0svhB8HKSOFD9-244" value="Change Management" style="ellipse;whiteSpace=wrap;html=1;strokeWidth=2;fillColor=#dae8fc;strokeColor=#6c8ebf;" vertex="1" parent="1">
          <mxGeometry x="2851" y="-870" width="140" height="60" as="geometry" />
        </mxCell>
        <mxCell id="eS9JZNQ0svhB8HKSOFD9-245" style="edgeStyle=orthogonalEdgeStyle;rounded=1;orthogonalLoop=1;jettySize=auto;html=1;exitX=0;exitY=0.5;exitDx=0;exitDy=0;dashed=1;dashPattern=8 8;strokeWidth=2;entryX=1;entryY=0.5;entryDx=0;entryDy=0;" edge="1" parent="1" source="eS9JZNQ0svhB8HKSOFD9-246" target="eS9JZNQ0svhB8HKSOFD9-263">
          <mxGeometry relative="1" as="geometry">
            <mxPoint x="2561" y="-560" as="targetPoint" />
            <Array as="points">
              <mxPoint x="2641" y="-684" />
              <mxPoint x="2641" y="-594" />
              <mxPoint x="2561" y="-594" />
            </Array>
          </mxGeometry>
        </mxCell>
        <mxCell id="eS9JZNQ0svhB8HKSOFD9-246" value="Legal" style="ellipse;whiteSpace=wrap;html=1;strokeWidth=2;fillColor=#dae8fc;strokeColor=#6c8ebf;" vertex="1" parent="1">
          <mxGeometry x="2851" y="-704" width="120" height="60" as="geometry" />
        </mxCell>
        <mxCell id="eS9JZNQ0svhB8HKSOFD9-247" style="edgeStyle=orthogonalEdgeStyle;rounded=1;orthogonalLoop=1;jettySize=auto;html=1;exitX=0;exitY=0.5;exitDx=0;exitDy=0;entryX=1;entryY=0.5;entryDx=0;entryDy=0;dashed=1;dashPattern=8 8;strokeWidth=2;" edge="1" parent="1" source="eS9JZNQ0svhB8HKSOFD9-248" target="eS9JZNQ0svhB8HKSOFD9-263">
          <mxGeometry relative="1" as="geometry" />
        </mxCell>
        <mxCell id="eS9JZNQ0svhB8HKSOFD9-248" value="Privacy And Security" style="ellipse;whiteSpace=wrap;html=1;strokeWidth=2;fillColor=#dae8fc;strokeColor=#6c8ebf;" vertex="1" parent="1">
          <mxGeometry x="2851" y="-624.5" width="150" height="60" as="geometry" />
        </mxCell>
        <mxCell id="eS9JZNQ0svhB8HKSOFD9-249" style="edgeStyle=orthogonalEdgeStyle;rounded=1;orthogonalLoop=1;jettySize=auto;html=1;exitX=0;exitY=0.5;exitDx=0;exitDy=0;entryX=1;entryY=0.5;entryDx=0;entryDy=0;dashed=1;dashPattern=8 8;strokeWidth=2;" edge="1" parent="1" source="eS9JZNQ0svhB8HKSOFD9-250" target="eS9JZNQ0svhB8HKSOFD9-248">
          <mxGeometry relative="1" as="geometry" />
        </mxCell>
        <mxCell id="eS9JZNQ0svhB8HKSOFD9-250" value="Access Control" style="ellipse;whiteSpace=wrap;html=1;strokeWidth=2;fillColor=#dae8fc;strokeColor=#6c8ebf;" vertex="1" parent="1">
          <mxGeometry x="3131" y="-694.5" width="150" height="60" as="geometry" />
        </mxCell>
        <mxCell id="eS9JZNQ0svhB8HKSOFD9-251" style="edgeStyle=orthogonalEdgeStyle;rounded=1;orthogonalLoop=1;jettySize=auto;html=1;exitX=0;exitY=0.5;exitDx=0;exitDy=0;dashed=1;dashPattern=8 8;entryX=1;entryY=0.5;entryDx=0;entryDy=0;strokeWidth=2;" edge="1" parent="1" source="eS9JZNQ0svhB8HKSOFD9-252" target="eS9JZNQ0svhB8HKSOFD9-248">
          <mxGeometry relative="1" as="geometry">
            <mxPoint x="3011" y="-594.5" as="targetPoint" />
          </mxGeometry>
        </mxCell>
        <mxCell id="eS9JZNQ0svhB8HKSOFD9-252" value="Audit" style="ellipse;whiteSpace=wrap;html=1;strokeWidth=2;fillColor=#dae8fc;strokeColor=#6c8ebf;" vertex="1" parent="1">
          <mxGeometry x="3131" y="-624.5" width="150" height="60" as="geometry" />
        </mxCell>
        <mxCell id="eS9JZNQ0svhB8HKSOFD9-253" style="edgeStyle=orthogonalEdgeStyle;rounded=1;orthogonalLoop=1;jettySize=auto;html=1;exitX=0;exitY=0.5;exitDx=0;exitDy=0;entryX=1;entryY=0.5;entryDx=0;entryDy=0;dashed=1;dashPattern=8 8;strokeWidth=2;" edge="1" parent="1" source="eS9JZNQ0svhB8HKSOFD9-254" target="eS9JZNQ0svhB8HKSOFD9-248">
          <mxGeometry relative="1" as="geometry" />
        </mxCell>
        <mxCell id="eS9JZNQ0svhB8HKSOFD9-254" value="Monitoring" style="ellipse;whiteSpace=wrap;html=1;strokeWidth=2;fillColor=#dae8fc;strokeColor=#6c8ebf;" vertex="1" parent="1">
          <mxGeometry x="3131" y="-554.5" width="150" height="60" as="geometry" />
        </mxCell>
        <mxCell id="eS9JZNQ0svhB8HKSOFD9-255" style="edgeStyle=orthogonalEdgeStyle;rounded=1;orthogonalLoop=1;jettySize=auto;html=1;exitX=0;exitY=0.5;exitDx=0;exitDy=0;entryX=1;entryY=0.5;entryDx=0;entryDy=0;dashed=1;dashPattern=8 8;strokeWidth=2;" edge="1" parent="1" source="eS9JZNQ0svhB8HKSOFD9-256" target="eS9JZNQ0svhB8HKSOFD9-242">
          <mxGeometry relative="1" as="geometry" />
        </mxCell>
        <mxCell id="eS9JZNQ0svhB8HKSOFD9-256" value="Electornic Records Management" style="ellipse;whiteSpace=wrap;html=1;strokeWidth=2;fillColor=#dae8fc;strokeColor=#6c8ebf;" vertex="1" parent="1">
          <mxGeometry x="3131" y="-454.5" width="210" height="60" as="geometry" />
        </mxCell>
        <mxCell id="eS9JZNQ0svhB8HKSOFD9-257" style="edgeStyle=orthogonalEdgeStyle;rounded=1;orthogonalLoop=1;jettySize=auto;html=1;exitX=0;exitY=0.5;exitDx=0;exitDy=0;entryX=1;entryY=0.5;entryDx=0;entryDy=0;dashed=1;dashPattern=8 8;strokeWidth=2;" edge="1" parent="1" source="eS9JZNQ0svhB8HKSOFD9-258" target="eS9JZNQ0svhB8HKSOFD9-242">
          <mxGeometry relative="1" as="geometry" />
        </mxCell>
        <mxCell id="eS9JZNQ0svhB8HKSOFD9-258" value="Records And Information Management" style="ellipse;whiteSpace=wrap;html=1;strokeWidth=2;fillColor=#dae8fc;strokeColor=#6c8ebf;" vertex="1" parent="1">
          <mxGeometry x="3131" y="-384.5" width="240" height="60" as="geometry" />
        </mxCell>
        <mxCell id="eS9JZNQ0svhB8HKSOFD9-259" style="edgeStyle=orthogonalEdgeStyle;rounded=1;orthogonalLoop=1;jettySize=auto;html=1;exitX=0;exitY=0.5;exitDx=0;exitDy=0;entryX=1;entryY=0.5;entryDx=0;entryDy=0;dashed=1;dashPattern=8 8;strokeWidth=2;" edge="1" parent="1" source="eS9JZNQ0svhB8HKSOFD9-260" target="eS9JZNQ0svhB8HKSOFD9-241">
          <mxGeometry relative="1" as="geometry" />
        </mxCell>
        <mxCell id="eS9JZNQ0svhB8HKSOFD9-260" value="Enterprise Risk Management" style="ellipse;whiteSpace=wrap;html=1;strokeWidth=2;fillColor=#dae8fc;strokeColor=#6c8ebf;" vertex="1" parent="1">
          <mxGeometry x="3131" y="-265.5" width="210" height="60" as="geometry" />
        </mxCell>
        <mxCell id="eS9JZNQ0svhB8HKSOFD9-261" style="edgeStyle=orthogonalEdgeStyle;rounded=1;orthogonalLoop=1;jettySize=auto;html=1;entryX=1;entryY=0.5;entryDx=0;entryDy=0;dashed=1;dashPattern=8 8;strokeWidth=2;" edge="1" parent="1" source="eS9JZNQ0svhB8HKSOFD9-262" target="eS9JZNQ0svhB8HKSOFD9-241">
          <mxGeometry relative="1" as="geometry" />
        </mxCell>
        <mxCell id="eS9JZNQ0svhB8HKSOFD9-262" value="Information Risk Management" style="ellipse;whiteSpace=wrap;html=1;strokeWidth=2;fillColor=#dae8fc;strokeColor=#6c8ebf;" vertex="1" parent="1">
          <mxGeometry x="3131" y="-194.5" width="210" height="60" as="geometry" />
        </mxCell>
        <mxCell id="eS9JZNQ0svhB8HKSOFD9-263" value="Departement" style="ellipse;whiteSpace=wrap;html=1;strokeWidth=2;fillColor=#dae8fc;strokeColor=#6c8ebf;" vertex="1" parent="1">
          <mxGeometry x="2481" y="-624.5" width="120" height="60" as="geometry" />
        </mxCell>
        <mxCell id="eS9JZNQ0svhB8HKSOFD9-266" value="Enterprise" style="ellipse;whiteSpace=wrap;html=1;strokeWidth=2;fillColor=#dae8fc;strokeColor=#6c8ebf;" vertex="1" parent="1">
          <mxGeometry x="2330" y="-354.5" width="120" height="60" as="geometry" />
        </mxCell>
        <mxCell id="eS9JZNQ0svhB8HKSOFD9-267" value="Small Enterprise" style="ellipse;whiteSpace=wrap;html=1;strokeWidth=2;fillColor=#dae8fc;strokeColor=#6c8ebf;" vertex="1" parent="1">
          <mxGeometry x="2510" y="-314.5" width="120" height="60" as="geometry" />
        </mxCell>
        <mxCell id="eS9JZNQ0svhB8HKSOFD9-268" value="Large Enterprise" style="ellipse;whiteSpace=wrap;html=1;strokeWidth=2;fillColor=#dae8fc;strokeColor=#6c8ebf;" vertex="1" parent="1">
          <mxGeometry x="2510" y="-394.5" width="120" height="60" as="geometry" />
        </mxCell>
        <mxCell id="eS9JZNQ0svhB8HKSOFD9-269" style="edgeStyle=orthogonalEdgeStyle;rounded=1;orthogonalLoop=1;jettySize=auto;html=1;exitX=0;exitY=0.5;exitDx=0;exitDy=0;entryX=1;entryY=0.5;entryDx=0;entryDy=0;dashed=1;dashPattern=8 8;strokeWidth=2;" edge="1" parent="1" source="eS9JZNQ0svhB8HKSOFD9-268" target="eS9JZNQ0svhB8HKSOFD9-266">
          <mxGeometry relative="1" as="geometry">
            <mxPoint x="2532.5" y="-514.5" as="sourcePoint" />
            <mxPoint x="2227.5" y="-604.5" as="targetPoint" />
          </mxGeometry>
        </mxCell>
        <mxCell id="eS9JZNQ0svhB8HKSOFD9-270" style="edgeStyle=orthogonalEdgeStyle;rounded=1;orthogonalLoop=1;jettySize=auto;html=1;exitX=0;exitY=0.5;exitDx=0;exitDy=0;entryX=1;entryY=0.5;entryDx=0;entryDy=0;dashed=1;dashPattern=8 8;strokeWidth=2;" edge="1" parent="1" source="eS9JZNQ0svhB8HKSOFD9-267" target="eS9JZNQ0svhB8HKSOFD9-266">
          <mxGeometry relative="1" as="geometry">
            <mxPoint x="2583" y="-514.5" as="sourcePoint" />
            <mxPoint x="2278" y="-604.5" as="targetPoint" />
          </mxGeometry>
        </mxCell>
        <mxCell id="eS9JZNQ0svhB8HKSOFD9-275" value="&lt;font style=&quot;font-size: 20px;&quot;&gt;1&lt;/font&gt;" style="edgeLabel;html=1;align=center;verticalAlign=middle;resizable=0;points=[];" vertex="1" connectable="0" parent="1">
          <mxGeometry x="1280.0033333333336" y="-220" as="geometry" />
        </mxCell>
        <mxCell id="eS9JZNQ0svhB8HKSOFD9-276" value="&lt;font style=&quot;font-size: 20px;&quot;&gt;1...&lt;/font&gt;" style="edgeLabel;html=1;align=center;verticalAlign=middle;resizable=0;points=[];" vertex="1" connectable="0" parent="1">
          <mxGeometry x="1430.0033333333336" y="-294.5" as="geometry" />
        </mxCell>
        <mxCell id="eS9JZNQ0svhB8HKSOFD9-277" value="&lt;font style=&quot;font-size: 20px;&quot;&gt;1...&lt;/font&gt;" style="edgeLabel;html=1;align=center;verticalAlign=middle;resizable=0;points=[];" vertex="1" connectable="0" parent="1">
          <mxGeometry x="1430.0033333333336" y="-220" as="geometry" />
        </mxCell>
        <mxCell id="eS9JZNQ0svhB8HKSOFD9-278" value="&lt;font style=&quot;font-size: 20px;&quot;&gt;1...&lt;/font&gt;" style="edgeLabel;html=1;align=center;verticalAlign=middle;resizable=0;points=[];" vertex="1" connectable="0" parent="1">
          <mxGeometry x="1323.0033333333336" y="-34" as="geometry">
            <mxPoint x="108" y="-110" as="offset" />
          </mxGeometry>
        </mxCell>
        <mxCell id="eS9JZNQ0svhB8HKSOFD9-281" value="&lt;font style=&quot;font-size: 20px;&quot;&gt;1&lt;/font&gt;" style="edgeLabel;html=1;align=center;verticalAlign=middle;resizable=0;points=[];" vertex="1" connectable="0" parent="1">
          <mxGeometry x="1420.0033333333336" y="-40" as="geometry">
            <mxPoint x="38" y="-2" as="offset" />
          </mxGeometry>
        </mxCell>
        <mxCell id="eS9JZNQ0svhB8HKSOFD9-282" value="&lt;font style=&quot;font-size: 20px;&quot;&gt;1...&lt;/font&gt;" style="edgeLabel;html=1;align=center;verticalAlign=middle;resizable=0;points=[];" vertex="1" connectable="0" parent="1">
          <mxGeometry x="1490.0033333333336" y="120" as="geometry">
            <mxPoint x="-2" y="-31" as="offset" />
          </mxGeometry>
        </mxCell>
        <mxCell id="eS9JZNQ0svhB8HKSOFD9-287" value="&lt;font style=&quot;font-size: 20px;&quot;&gt;1...&lt;/font&gt;" style="edgeLabel;html=1;align=center;verticalAlign=middle;resizable=0;points=[];" vertex="1" connectable="0" parent="1">
          <mxGeometry x="1033.6972413793187" y="1004" as="geometry">
            <mxPoint x="134" y="-67" as="offset" />
          </mxGeometry>
        </mxCell>
        <mxCell id="eS9JZNQ0svhB8HKSOFD9-288" value="&lt;font style=&quot;font-size: 20px;&quot;&gt;1&lt;/font&gt;" style="edgeLabel;html=1;align=center;verticalAlign=middle;resizable=0;points=[];" vertex="1" connectable="0" parent="1">
          <mxGeometry x="1537.0033333333336" y="637" as="geometry">
            <mxPoint x="3" y="64" as="offset" />
          </mxGeometry>
        </mxCell>
        <mxCell id="eS9JZNQ0svhB8HKSOFD9-291" value="&lt;font style=&quot;font-size: 20px;&quot;&gt;1...&lt;/font&gt;" style="edgeLabel;html=1;align=center;verticalAlign=middle;resizable=0;points=[];" vertex="1" connectable="0" parent="1">
          <mxGeometry x="1540.0033333333336" y="603" as="geometry">
            <mxPoint x="-2" y="-31" as="offset" />
          </mxGeometry>
        </mxCell>
        <mxCell id="eS9JZNQ0svhB8HKSOFD9-292" value="&lt;font style=&quot;font-size: 20px;&quot;&gt;1&lt;/font&gt;" style="edgeLabel;html=1;align=center;verticalAlign=middle;resizable=0;points=[];" vertex="1" connectable="0" parent="1">
          <mxGeometry x="1537.0033333333336" y="440" as="geometry">
            <mxPoint x="3" y="64" as="offset" />
          </mxGeometry>
        </mxCell>
      </root>
    </mxGraphModel>
  </diagram>
</mxfile>
